<?xml version="1.0" encoding="UTF-8"?>
<svg width="200px" height="120px" viewBox="0 0 200 120" version="1.1" xmlns="http://www.w3.org/2000/svg">
    <title>Cloud</title>
    <g stroke="none" stroke-width="1" fill="none" fill-rule="evenodd">
        <path d="M173.5,92 C188.688,92 201,79.688 201,64.5 C201,49.312 188.688,37 173.5,37 C172.015,37 170.553,37.117 169.122,37.344 C163.521,16.259 144.062,1 121,1 C94.490,1 73,22.490 73,49 C73,50.089 73.036,51.171 73.106,52.244 C71.763,52.083 70.391,52 69,52 C47.461,52 30,69.461 30,91 C30,112.539 47.461,130 69,130 L173.5,130 C188.688,130 201,117.688 201,102.5 C201,87.312 188.688,75 173.5,75 C172.015,75 170.553,75.117 169.122,75.344 C163.521,54.259 144.062,39 121,39 C94.490,39 73,60.490 73,87 C73,88.089 73.036,89.171 73.106,90.244 C71.763,90.083 70.391,90 69,90 C47.461,90 30,107.461 30,129" id="cloud" stroke="#FFFFFF" stroke-width="2" fill-opacity="0.5" fill="#FFFFFF"></path>
    </g>
</svg>
